v -0.051962 0.030000 0.005000
v -0.060000 0.000000 0.005000
v 0.000000 0.000000 0.170000
v -0.051962 -0.030000 0.005000
v 0.000000 0.000000 0.170000
v -0.030000 0.051962 0.005000
v 0.000000 0.000000 0.170000
v 0.000000 0.000000 0.170000
v -0.030000 -0.051962 0.005000
v 0.000000 0.000000 0.170000
v 0.000000 0.060000 0.005000
v 0.000000 0.000000 0.170000
v 0.000000 -0.060000 0.005000
v 0.000000 0.000000 0.170000
v 0.030000 0.051962 0.005000
v 0.000000 0.000000 0.170000
v 0.030000 -0.051962 0.005000
v 0.000000 0.000000 0.170000
v 0.051962 0.030000 0.005000
v 0.000000 0.000000 0.170000
v 0.051962 -0.030000 0.005000
v 0.000000 0.000000 0.170000
v 0.060000 0.000000 0.005000
v 0.000000 0.000000 0.170000

vn -0.911300 0.244200 0.331400
vn -0.911300 -0.244200 0.331400
vn -0.667100 0.667100 0.331400
vn -0.667100 -0.667100 0.331400
vn -0.244200 0.911300 0.331400
vn -0.244200 -0.911300 0.331400
vn 0.244200 0.911300 0.331400
vn 0.244200 -0.911300 0.331400
vn 0.667100 0.667100 0.331400
vn 0.667100 -0.667100 0.331400
vn 0.911300 0.244200 0.331400
vn 0.911300 -0.244200 0.331400

f 1//1 2//1 3//1
f 2//2 4//2 5//2
f 6//3 1//3 7//3
f 8//4 4//4 9//4
f 10//5 11//5 6//5
f 12//6 9//6 13//6
f 14//7 15//7 11//7
f 16//8 13//8 17//8
f 18//9 19//9 15//9
f 20//10 17//10 21//10
f 19//11 22//11 23//11
f 23//12 24//12 21//12
